<?xml version="1.0" standalone="no"?>
<!DOCTYPE svg PUBLIC "-//W3C//DTD SVG 20010904//EN"
 "http://www.w3.org/TR/2001/REC-SVG-20010904/DTD/svg10.dtd">
<svg version="1.0" xmlns="http://www.w3.org/2000/svg"
 width="3000.000000pt" height="3000.000000pt" viewBox="0 0 3000.000000 3000.000000"
 preserveAspectRatio="xMidYMid meet">

<g transform="translate(0.000000,3000.000000) scale(0.100000,-0.100000)"
fill="#000000" stroke="none">
<path d="M8097 29993 c-4 -3 -7 -23 -7 -43 0 -21 -7 -43 -14 -50 -25 -20 -35
-69 -46 -214 -8 -112 -17 -158 -43 -235 l-32 -95 -115 -68 c-63 -37 -160 -93
-215 -124 -110 -62 -238 -182 -306 -284 -84 -127 -166 -280 -196 -368 -87
-250 -66 -606 63 -1057 47 -161 137 -349 253 -525 53 -80 97 -149 99 -155 1
-5 -44 -36 -101 -67 -189 -105 -278 -214 -307 -376 -23 -129 19 -278 107 -372
l53 -58 -10 -48 c-5 -27 -14 -148 -20 -269 -5 -121 -15 -283 -20 -360 -21
-275 -29 -747 -35 -1960 -3 -676 -8 -1231 -10 -1234 -3 -2 -71 4 -152 13 -82
9 -218 21 -304 27 -210 16 -251 8 -365 -67 -78 -51 -93 -66 -150 -153 -140
-210 -244 -352 -341 -466 l-103 -119 -64 -1 c-57 0 -69 -4 -117 -37 -135 -93
-498 -476 -778 -821 -35 -43 -107 -125 -160 -181 -150 -160 -202 -229 -322
-421 -83 -134 -242 -350 -309 -420 -117 -123 -222 -247 -239 -284 -10 -20 -53
-72 -97 -116 -44 -44 -105 -114 -136 -155 -31 -41 -98 -122 -148 -180 -88
-100 -179 -220 -230 -305 -68 -113 -183 -267 -250 -335 -103 -104 -167 -179
-301 -355 -180 -235 -290 -389 -379 -530 -151 -238 -261 -394 -318 -452 -32
-32 -77 -82 -101 -111 -53 -65 -61 -69 -152 -83 -141 -21 -189 -74 -189 -205
0 -76 20 -131 69 -193 l30 -37 -8 -125 c-11 -181 -6 -1602 7 -1889 6 -135 16
-312 21 -395 6 -82 16 -213 21 -290 28 -395 40 -507 71 -683 37 -209 49 -336
55 -587 3 -137 12 -306 21 -375 20 -158 23 -534 4 -639 -11 -64 -11 -78 3
-116 15 -38 16 -65 5 -266 -16 -321 -7 -820 24 -1234 15 -187 31 -428 37 -535
6 -107 17 -301 25 -430 82 -1329 71 -2011 -60 -3510 -14 -157 -36 -424 -50
-595 -25 -313 -42 -475 -70 -640 -33 -194 -37 -253 -41 -639 -4 -384 -3 -402
16 -441 13 -27 34 -50 63 -66 l42 -24 1270 -3 c815 -2 1334 1 1450 8 363 21
1018 32 1315 21 306 -11 841 -37 955 -46 131 -10 569 -25 1025 -35 250 -6 608
-19 795 -30 463 -27 740 -37 1280 -50 253 -5 575 -15 715 -20 628 -26 781 -30
1375 -34 347 -3 1424 -6 2395 -8 1716 -3 2152 2 3160 32 184 6 544 15 800 20
256 6 562 14 680 20 366 16 985 30 1730 40 942 13 1324 30 1726 79 246 30 450
41 775 41 306 0 386 7 429 38 59 43 288 332 361 455 26 43 80 118 121 165 78
92 123 149 266 339 131 174 213 261 708 758 479 480 712 708 837 819 43 37
146 143 230 234 84 92 197 214 252 272 105 111 296 323 342 382 16 19 69 79
120 134 50 54 109 120 130 146 66 80 244 279 343 383 53 55 140 156 195 225
54 69 145 175 201 235 56 61 188 205 294 320 106 116 241 260 300 320 146 151
201 217 387 467 51 67 122 162 159 209 86 110 103 144 104 199 0 77 -64 150
-134 150 -23 0 -27 3 -21 18 25 60 27 101 16 305 -6 117 -18 259 -26 317 -8
58 -24 179 -35 270 -28 221 -65 404 -171 835 -32 128 -32 135 -40 455 -5 224
-12 356 -24 425 -30 182 -46 405 -55 770 -5 223 -14 398 -24 460 -8 55 -17
188 -20 295 -4 107 -11 315 -18 463 l-12 267 22 16 c32 22 52 67 52 114 0 46
-11 72 -45 110 l-23 25 -5 1485 c-4 835 -10 1540 -16 1610 -22 273 -31 458
-36 740 -10 491 -22 650 -86 1140 -33 252 -49 401 -49 467 0 57 2 63 29 82 17
12 37 42 47 67 16 43 17 59 5 183 -6 75 -16 246 -21 381 -10 264 -11 286 -40
460 -18 107 -45 338 -70 595 -5 61 -17 171 -25 245 -8 74 -20 194 -25 265 -13
157 -20 182 -66 226 -33 32 -39 34 -104 34 -62 0 -72 -3 -99 -29 l-30 -29
-603 12 c-332 6 -691 16 -798 21 -107 5 -409 14 -670 20 -261 6 -533 15 -605
20 -71 5 -269 14 -440 20 -170 5 -399 14 -508 20 -109 5 -421 10 -694 10
l-496 0 7 613 c6 608 16 965 36 1357 5 113 15 337 20 499 6 161 17 368 24 460
37 433 38 455 27 514 -13 71 -34 101 -89 128 -42 21 -67 21 -128 4 -19 -6 -22
-2 -26 44 -8 78 -58 169 -131 238 -75 70 -305 216 -380 242 -65 23 -162 38
-289 47 l-97 6 -7 47 c-9 61 3 547 16 634 7 50 21 88 50 137 35 60 55 80 153
153 110 82 135 110 195 212 16 28 59 89 95 136 57 74 83 97 194 172 116 79
285 207 403 306 58 49 246 280 281 346 15 28 41 89 57 137 73 206 52 331 -130
783 -151 375 -190 445 -292 514 -23 16 -130 74 -238 130 l-198 101 -598 0
-598 0 -31 -62 c-59 -119 -78 -226 -88 -488 -6 -170 -20 -344 -36 -460 -12
-84 -73 -336 -124 -511 -19 -64 -46 -173 -60 -243 -22 -112 -74 -275 -111
-347 -7 -14 -67 -76 -132 -137 -112 -105 -204 -216 -265 -322 -72 -125 -73
-321 -2 -550 83 -270 139 -433 196 -578 38 -95 69 -174 69 -177 0 -3 -21 -16
-47 -29 -63 -32 -174 -147 -207 -214 -62 -124 -126 -344 -126 -433 0 -49 -17
-122 -41 -177 -21 -48 -31 -122 -59 -467 -81 -964 -93 -1197 -112 -2108 l-12
-587 -33 -20 c-30 -18 -68 -20 -580 -30 -525 -10 -1002 -24 -1183 -35 -47 -3
-159 -9 -250 -15 -91 -5 -280 -14 -420 -20 -140 -6 -327 -15 -415 -20 -292
-18 -1309 -60 -1459 -60 l-68 0 5 1518 c4 887 11 1592 17 1697 6 99 12 250 15
336 l4 155 45 68 c74 109 104 249 79 368 -14 70 -51 176 -81 233 -27 52 -145
177 -226 239 -78 60 -226 134 -341 171 -38 13 -109 37 -157 54 -48 16 -139 38
-203 47 l-115 18 0 110 c0 129 16 373 31 466 17 109 68 311 95 376 34 83 69
122 179 199 100 70 227 181 285 252 20 24 54 77 75 120 l40 77 0 260 c-1 309
-11 377 -83 576 -57 158 -70 185 -169 347 -86 141 -136 192 -250 251 -100 52
-177 66 -313 58 -267 -17 -361 -69 -457 -252 -28 -55 -54 -119 -58 -144 -8
-54 12 -154 60 -313 21 -65 35 -133 35 -162 -1 -99 -27 -250 -59 -330 -17 -45
-38 -104 -46 -132 -25 -85 -63 -140 -181 -264 -152 -162 -218 -291 -243 -480
-11 -78 -2 -246 19 -359 6 -30 19 -124 30 -207 11 -84 36 -212 55 -285 19 -73
35 -139 35 -145 0 -8 -13 -13 -30 -13 -41 0 -242 -43 -343 -74 -46 -14 -102
-39 -125 -56 -46 -33 -117 -118 -138 -165 -51 -113 -85 -224 -98 -317 -8 -62
-22 -119 -35 -143 -25 -47 -26 -82 -6 -132 14 -34 14 -40 -2 -72 -16 -32 -18
-67 -18 -301 1 -146 6 -337 13 -425 19 -243 28 -1608 13 -2135 -18 -642 -31
-1007 -38 -1067 l-6 -53 -1703 0 -1703 0 -5 33 c-3 17 -8 79 -11 137 -3 58
-12 173 -20 255 -8 83 -19 218 -25 300 -5 83 -14 217 -20 299 -6 82 -10 183
-9 225 1 42 -3 135 -9 206 -6 72 -12 321 -12 555 0 234 -5 535 -11 670 -6 135
-14 488 -18 785 l-7 540 39 81 c73 150 75 310 6 450 -26 52 -59 94 -134 170
-112 113 -163 149 -273 194 -42 18 -80 35 -85 39 -4 4 -3 30 2 57 6 27 15 141
21 254 6 113 15 225 20 250 32 151 42 268 50 555 10 354 19 438 62 550 30 77
36 84 188 235 l158 155 60 125 c93 190 121 326 96 467 -18 105 -33 149 -75
219 -47 78 -192 230 -263 276 l-59 38 -632 0 c-347 0 -635 -3 -638 -7z m13934
-147 c209 -35 332 -79 575 -203 115 -58 224 -117 241 -130 40 -29 79 -109 197
-405 82 -206 136 -378 136 -438 0 -31 -29 -119 -58 -176 -29 -56 -175 -238
-225 -278 -159 -130 -207 -167 -332 -253 -77 -53 -157 -109 -177 -125 -46 -36
-186 -216 -239 -307 -32 -56 -54 -77 -140 -141 -56 -41 -119 -97 -140 -123
-59 -74 -127 -205 -143 -277 -22 -92 -37 -340 -35 -585 l0 -210 -203 0 c-112
0 -239 -4 -283 -9 l-81 -8 -77 193 c-86 216 -185 512 -222 664 -29 115 -31
180 -10 232 27 65 112 167 234 281 67 63 133 134 147 158 62 105 132 304 159
449 9 50 36 160 60 245 124 439 157 639 171 1035 7 201 19 286 50 352 29 59
33 61 152 73 42 4 82 8 87 9 6 0 76 -10 156 -23z m-13051 -21 c93 -22 278
-115 331 -167 66 -63 126 -148 138 -193 26 -96 7 -201 -61 -334 -34 -67 -60
-100 -128 -165 -195 -186 -206 -199 -254 -298 -87 -182 -104 -283 -117 -718
-5 -173 -13 -340 -18 -370 -5 -30 -16 -95 -25 -145 -9 -49 -22 -194 -30 -322
-8 -128 -17 -236 -20 -241 -3 -5 -169 -7 -388 -5 -211 3 -416 1 -455 -4 -40
-5 -76 -7 -81 -4 -36 26 -229 314 -287 431 -66 132 -90 200 -134 379 -55 224
-75 386 -67 543 8 147 30 225 94 330 23 37 52 88 66 115 13 26 54 80 90 119
57 62 89 85 268 189 275 160 275 160 309 213 16 26 47 101 69 167 38 119 53
205 66 387 l6 87 31 6 c64 10 106 12 317 13 161 1 231 -2 280 -13z m5897 -240
c67 -28 100 -63 172 -183 73 -122 141 -286 167 -402 9 -40 17 -148 21 -280 6
-205 5 -217 -15 -256 -32 -63 -135 -160 -265 -252 -205 -145 -275 -259 -346
-557 -51 -215 -70 -367 -78 -622 l-6 -203 -142 0 -142 0 -46 183 c-26 100 -54
236 -62 302 -7 66 -21 160 -29 209 -22 126 -21 288 3 357 33 97 58 134 159
236 152 153 190 224 298 550 27 82 54 269 54 374 0 71 -21 172 -59 282 -36
103 -37 149 -7 200 29 51 39 57 121 67 101 12 164 11 202 -5z m-6743 -3040
c-4 -8 -7 -15 -9 -15 -2 0 -5 7 -9 15 -3 9 0 15 9 15 9 0 12 -6 9 -15z m347
-53 c-49 -117 -81 -229 -81 -279 0 -88 57 -145 145 -145 88 0 136 49 179 187
38 117 43 119 48 19 5 -95 29 -167 71 -213 l22 -24 -220 7 c-248 7 -510 23
-600 36 -162 23 -319 53 -400 77 -49 14 -114 28 -144 32 -52 6 -55 8 -63 39
-12 46 6 102 44 139 33 32 214 133 237 133 9 0 11 -6 6 -17 -46 -107 -42 -158
14 -215 50 -49 97 -58 164 -29 l51 21 47 -40 c122 -103 214 -121 294 -58 28
22 68 101 100 198 10 30 31 79 46 109 16 30 29 62 29 72 0 12 7 19 19 19 19 0
18 -4 -8 -68z m5533 2 c10 -37 3 -38 -18 -4 -14 25 -15 30 -3 30 8 0 18 -12
21 -26z m491 9 c-21 -50 -26 -142 -23 -397 3 -262 4 -283 24 -316 33 -56 79
-82 142 -78 54 3 56 1 45 -40 -5 -22 -9 -23 -52 -17 -25 3 -104 26 -176 50
-71 24 -155 49 -186 56 l-56 12 37 37 c30 30 44 58 69 136 30 96 37 126 81
320 22 99 26 188 10 228 -9 26 -9 26 41 26 45 0 50 -2 44 -17z m465 -22 c25
-7 25 -7 -9 -19 -45 -16 -48 -15 -54 8 -6 22 13 25 63 11z m-1367 -168 c-58
-87 -107 -160 -110 -163 -2 -2 -1 16 3 40 8 55 68 207 91 232 13 15 85 44 115
47 3 1 -41 -70 -99 -156z m1585 98 c39 -13 72 -27 72 -31 0 -5 -13 -49 -29
-98 -29 -86 -89 -217 -146 -312 l-26 -45 6 45 c9 67 44 208 66 268 10 29 19
64 19 78 0 32 -22 85 -45 108 -21 21 -23 21 83 -13z m-1103 -179 c-9 -46 -30
-125 -47 -175 -29 -91 -34 -164 -14 -209 6 -13 4 -18 -8 -18 -19 0 -267 89
-279 100 -13 11 161 278 215 330 50 49 78 101 78 147 0 23 5 19 36 -32 l35
-60 -16 -83z m-4764 40 c16 -32 20 -56 17 -92 -10 -98 -53 -127 -204 -137
l-96 -6 49 64 c45 59 121 201 138 258 l7 23 34 -33 c19 -18 44 -53 55 -77z
m6261 -100 c72 -79 98 -246 50 -312 -27 -36 -166 -117 -242 -141 -36 -11 -72
-22 -80 -24 -10 -3 24 74 86 198 56 112 110 229 120 260 10 31 21 57 25 57 4
0 22 -17 41 -38z m6035 -334 c-14 -24 -60 -106 -102 -183 -43 -77 -80 -142
-83 -145 -2 -3 -2 25 2 61 7 76 -6 159 -31 194 -20 28 -89 65 -120 65 -19 0
-33 17 -33 41 0 5 84 9 196 9 l196 0 -25 -42z m828 -80 c162 -101 157 -92 153
-274 -3 -148 -4 -152 -33 -199 -16 -26 -37 -51 -45 -56 -8 -4 -69 -38 -135
-76 l-120 -68 -300 0 c-165 0 -340 4 -390 9 -88 8 -89 8 -60 23 68 35 113 98
240 332 l76 140 40 -40 c21 -21 45 -39 53 -39 25 0 26 -14 5 -96 -32 -122 -18
-184 54 -238 35 -26 111 -27 153 -2 53 32 71 73 118 266 49 205 60 270 58 348
-1 39 2 51 11 45 7 -4 62 -38 122 -75z m-14755 -12 c120 -30 285 -50 376 -44
52 3 77 9 100 27 l31 23 254 -12 c140 -7 374 -10 521 -8 l267 3 4 -375 c2
-206 10 -488 17 -627 8 -139 12 -255 9 -257 -3 -3 -22 -1 -42 5 -29 8 -71 4
-198 -16 -157 -26 -165 -26 -356 -15 -207 12 -282 22 -508 71 -200 43 -306 75
-381 114 -76 40 -111 43 -170 14 -30 -14 -48 -32 -63 -62 -12 -23 -21 -35 -21
-27 -3 95 3 366 11 480 5 80 16 276 24 435 7 160 14 291 14 293 2 5 19 1 111
-22z m7360 -47 c6 -11 26 -29 43 -39 l32 -20 -61 0 -61 0 10 40 c12 45 21 50
37 19z m-1492 -28 c132 -66 442 -169 627 -207 44 -9 128 -34 187 -55 188 -67
237 -74 553 -74 l280 0 149 48 c82 26 154 47 159 47 7 0 8 -49 3 -137 -17
-332 -26 -895 -28 -1793 -2 -531 -4 -1106 -6 -1277 l-3 -313 -332 0 c-302 -1
-591 -6 -1435 -26 l-293 -7 6 59 c12 120 25 473 25 667 l0 200 108 -7 c250
-15 626 -25 1057 -27 443 -1 462 -1 526 20 112 36 286 186 308 267 14 52 14
62 -8 110 -23 51 -74 84 -130 84 -55 0 -88 -18 -172 -96 -39 -35 -82 -67 -97
-71 -14 -3 -294 -3 -621 0 -542 6 -757 14 -900 33 l-51 7 0 557 0 557 80 -39
c66 -33 114 -47 268 -78 350 -70 698 -109 808 -91 32 5 112 19 177 30 66 12
142 21 171 21 151 0 266 95 266 219 0 124 -142 190 -241 112 -16 -12 -49 -20
-99 -25 -41 -3 -134 -17 -207 -31 -119 -22 -143 -23 -245 -15 -271 23 -677 93
-748 130 -19 10 -62 32 -94 49 -35 19 -74 31 -96 31 l-38 0 -6 178 c-3 97 -10
272 -16 387 -6 116 -10 279 -10 364 0 152 0 153 28 186 15 19 28 34 30 34 1 1
28 -12 60 -28z m7525 -213 c20 -52 14 -80 -49 -255 0 -2 -24 4 -52 12 l-50 15
22 43 c13 23 41 84 62 135 21 50 41 92 45 92 3 0 14 -19 22 -42z m291 -323
c11 -8 15 -15 9 -15 -19 0 -43 12 -43 21 0 13 12 11 34 -6z m1437 -205 c-17
-216 -21 -296 -31 -634 -5 -175 -11 -320 -13 -322 -2 -2 -21 5 -42 16 -22 11
-52 20 -67 20 -30 0 -92 -23 -116 -42 -32 -27 -371 -116 -472 -124 -163 -13
-692 20 -1120 71 -113 13 -242 27 -287 31 -81 7 -83 7 -83 33 0 52 30 470 44
621 8 85 18 199 22 253 4 54 10 96 13 95 3 -2 61 -40 129 -86 138 -93 160
-104 218 -104 51 0 96 22 123 60 23 33 -1 33 231 -7 171 -29 337 -41 610 -42
318 -2 386 9 515 86 50 29 124 70 165 92 57 29 85 51 120 95 32 41 46 52 49
40 2 -9 -2 -77 -8 -152z m-15210 -541 c91 -69 209 -109 517 -174 245 -52 391
-71 622 -80 154 -6 176 -4 335 23 94 17 177 33 187 37 15 6 17 -29 20 -447 2
-249 3 -454 2 -456 0 -1 -43 -11 -94 -23 -232 -50 -483 -63 -660 -34 -52 8
-151 22 -220 30 -69 9 -219 29 -335 46 -208 31 -404 42 -437 25 -17 -8 -18 24
-18 585 l0 594 24 -50 c12 -28 38 -62 57 -76z m15148 -836 c-4 -98 -10 -479
-15 -847 l-7 -669 -411 7 c-226 4 -503 11 -616 16 -113 5 -424 10 -692 10
l-488 0 0 178 c0 97 3 227 7 289 l6 112 31 -23 c46 -35 68 -45 216 -98 173
-63 466 -125 915 -194 203 -32 586 -10 720 41 136 51 196 92 221 151 19 45 18
70 -7 121 -24 50 -77 83 -134 83 -20 0 -73 -16 -118 -36 -64 -28 -107 -39
-192 -50 -266 -32 -451 -14 -1014 97 -153 31 -350 94 -445 143 -59 31 -99 33
-151 6 -21 -11 -40 -18 -41 -17 -5 5 16 678 22 726 l6 44 86 -7 c48 -4 157
-16 243 -26 428 -53 955 -88 1169 -77 166 9 550 108 639 166 25 16 48 30 51
30 3 1 2 -79 -1 -176z m-14977 -528 c112 -14 226 -30 253 -35 28 -5 115 -17
195 -25 80 -9 167 -21 195 -26 249 -47 492 -41 793 18 45 9 85 13 89 9 3 -3
12 -86 19 -183 25 -329 35 -457 49 -613 8 -85 15 -183 15 -217 l0 -63 -162 0
c-270 0 -898 29 -1108 50 -101 11 -556 50 -577 50 -10 0 -13 115 -13 540 l0
540 25 -10 c13 -5 116 -21 227 -35z m-722 -1293 l145 -17 7 -435 c3 -239 11
-471 17 -515 5 -44 13 -162 17 -261 7 -176 6 -183 -14 -209 -52 -66 -47 -143
14 -216 19 -23 39 -50 45 -60 15 -29 83 -59 133 -59 25 0 74 -11 108 -24 121
-45 384 -101 723 -155 298 -47 635 -52 790 -12 44 12 143 52 220 90 l140 68 7
-101 c7 -115 15 -140 53 -178 73 -73 196 -53 241 40 18 35 19 77 16 961 l-4
924 1134 -6 c623 -4 1386 -7 1696 -7 l562 0 0 -52 c0 -29 -7 -134 -15 -232 -8
-99 -17 -267 -20 -375 -4 -108 -13 -268 -21 -356 -8 -88 -19 -223 -24 -300 -7
-110 -13 -149 -29 -180 -28 -53 -27 -69 16 -175 29 -74 43 -96 72 -116 39 -26
94 -31 145 -13 25 9 65 5 211 -19 99 -17 216 -36 260 -42 93 -13 279 -52 380
-79 69 -18 297 -65 565 -115 299 -56 467 -66 660 -40 74 10 153 17 175 16 135
-8 143 -7 172 14 44 32 102 149 102 207 1 27 -4 57 -10 68 -7 15 -6 65 5 182
9 89 20 281 26 427 6 146 15 315 20 375 6 61 10 275 10 478 l0 367 83 0 c170
0 855 28 1372 55 149 8 383 19 520 25 138 6 318 15 400 20 349 23 871 39 1729
55 l308 5 -5 -397 c-6 -545 -34 -1110 -63 -1283 -16 -97 -16 -99 5 -143 26
-53 74 -82 151 -92 83 -10 188 -39 429 -115 228 -72 398 -110 610 -136 143
-18 1045 -35 1143 -22 141 19 290 105 304 175 5 27 11 32 48 37 58 9 102 38
125 84 27 54 39 162 51 480 6 150 15 317 20 370 5 53 10 303 10 555 l0 457
418 0 c402 0 1119 -19 1502 -40 279 -16 629 -29 1100 -41 234 -5 522 -14 640
-19 118 -5 314 -9 435 -9 121 -1 230 -4 242 -7 19 -5 10 -15 -70 -71 -101 -72
-286 -223 -387 -317 -36 -34 -131 -116 -210 -184 -80 -67 -217 -190 -305 -273
-88 -83 -235 -220 -327 -306 -93 -85 -168 -159 -168 -163 0 -4 -62 -72 -138
-151 -312 -327 -560 -614 -762 -884 -58 -77 -168 -216 -244 -310 -152 -185
-216 -271 -216 -291 0 -20 -8 -22 -150 -44 -164 -26 -279 -21 -1085 40 -66 5
-302 14 -525 20 -223 6 -490 15 -595 21 -104 5 -388 14 -630 19 -514 11 -951
27 -1120 41 -66 5 -244 14 -395 19 -151 6 -348 15 -438 20 -365 24 -1057 12
-1777 -29 -229 -14 -601 -24 -1140 -32 -440 -6 -883 -15 -985 -19 -527 -24
-1442 -35 -2835 -34 -1398 1 -1969 9 -2400 34 -93 5 -323 14 -510 20 -542 16
-925 41 -1415 90 -162 16 -376 36 -475 45 -99 8 -232 22 -295 29 -63 8 -167
18 -230 21 -63 4 -191 13 -285 21 -166 14 -351 28 -765 59 -113 8 -288 22
-390 30 -317 26 -662 37 -1310 44 l-625 6 270 270 c338 338 994 1018 1186
1230 151 166 162 180 336 410 59 77 146 185 193 240 48 55 120 149 161 208 41
60 98 143 126 185 29 43 67 90 85 106 l33 28 170 -7 c94 -3 235 -14 315 -23z
m14635 18 c138 -5 363 -13 500 -17 343 -9 245 -23 -185 -26 -262 -1 -350 2
-455 16 -71 9 -146 21 -165 26 l-35 9 45 1 c25 1 158 -3 295 -9z m-14015 -144
c63 -13 167 -36 230 -50 129 -28 456 -71 660 -85 74 -6 257 -13 405 -16 269
-7 270 -7 315 17 29 15 52 36 65 60 11 22 28 38 38 38 16 0 17 -37 17 -639 l0
-639 -102 -59 c-154 -90 -289 -152 -365 -168 -81 -17 -195 -19 -393 -4 -304
21 -854 129 -971 190 -13 7 -17 42 -23 231 -3 123 -11 259 -16 303 -5 44 -9
255 -9 468 -1 365 0 388 17 383 9 -3 69 -16 132 -30z m13058 -35 c109 -37 204
-63 260 -71 48 -6 173 -27 277 -45 299 -54 377 -60 735 -59 373 1 534 17 632
61 32 14 63 32 69 39 6 8 16 14 21 14 12 0 2 -683 -12 -905 -5 -77 -12 -230
-15 -340 -6 -169 -10 -210 -28 -262 -16 -47 -27 -63 -40 -63 -10 0 -52 -13
-94 -30 l-75 -30 -376 0 c-694 0 -862 20 -1277 151 -121 38 -246 76 -279 85
l-59 16 7 62 c3 33 10 178 16 321 6 143 15 330 20 415 6 85 10 280 10 433 0
262 1 279 18 273 9 -3 95 -32 190 -65z m-5578 8 c-69 -18 -100 -19 -385 -14
-432 7 -521 18 -205 25 135 3 340 6 455 7 l210 1 -75 -19z m12719 -186 c6 -60
16 -155 22 -213 5 -58 16 -163 23 -235 7 -71 11 -201 8 -287 l-3 -158 -57 39
c-31 21 -98 59 -148 84 -51 25 -132 70 -181 100 -49 30 -165 94 -259 142 -93
49 -171 90 -173 92 -18 14 292 274 449 376 78 51 287 166 301 167 3 0 11 -48
18 -107z m-14104 -4 c66 -17 157 -41 201 -54 190 -55 508 -84 924 -85 171 0
222 3 300 21 91 19 234 54 273 65 18 6 19 -8 14 -353 -2 -197 -10 -468 -16
-603 -11 -235 -37 -556 -47 -571 -8 -14 -69 -28 -174 -39 -115 -13 -304 -3
-455 25 -44 8 -143 26 -220 40 -178 31 -393 78 -481 103 -82 24 -190 46 -334
67 -216 32 -415 67 -421 73 -7 8 4 221 25 462 9 96 20 285 26 420 5 135 15
308 21 386 l12 141 116 -34 c64 -18 170 -47 236 -64z m13120 -664 c18 -14 109
-64 201 -111 93 -48 232 -123 309 -168 77 -46 190 -109 250 -141 126 -67 175
-74 238 -37 l37 21 0 -391 c0 -372 -1 -390 -17 -376 -10 9 -76 43 -147 77 -71
33 -165 83 -210 110 -45 26 -106 61 -136 76 -30 15 -93 49 -140 75 -218 123
-377 210 -514 282 -165 88 -338 197 -333 211 4 13 410 396 420 397 5 0 23 -11
42 -25z m-555 -692 c80 -53 166 -102 377 -215 48 -26 131 -72 183 -101 52 -29
156 -86 230 -127 74 -40 185 -101 245 -136 61 -34 171 -92 246 -129 157 -76
209 -85 273 -47 l36 21 0 -315 c0 -249 -3 -314 -12 -308 -7 4 -32 20 -55 36
-68 46 -484 251 -699 344 -406 176 -575 239 -1114 414 -190 62 -349 114 -353
117 -9 5 87 115 263 298 69 71 149 158 179 193 l54 63 31 -26 c17 -14 69 -51
116 -82z m-830 -683 c0 -23 109 -66 445 -175 411 -134 706 -239 880 -315 66
-28 182 -79 258 -111 161 -69 544 -259 602 -299 65 -44 188 -108 223 -115 l32
-7 0 -67 c0 -38 14 -176 31 -307 l31 -239 -6 -350 c-4 -192 -9 -371 -12 -397
l-6 -47 -47 24 c-26 13 -121 53 -212 88 -295 117 -521 205 -669 260 -80 31
-221 86 -315 122 -93 37 -246 96 -338 131 -92 35 -286 114 -430 175 -144 61
-311 131 -372 154 -156 61 -573 235 -685 287 -52 24 -123 57 -157 73 -41 19
-63 34 -63 46 0 9 -3 30 -6 47 -6 30 -5 30 48 41 67 14 112 41 139 83 17 27
19 44 16 96 l-5 63 65 77 c36 42 69 78 74 80 4 2 39 -14 76 -36 37 -21 138
-75 223 -119 85 -44 220 -118 300 -165 267 -157 496 -278 666 -354 299 -132
372 -167 648 -303 149 -73 334 -162 411 -196 77 -35 194 -88 260 -119 79 -37
133 -56 158 -56 84 0 145 54 155 135 4 35 -1 53 -22 90 -26 43 -37 51 -180
119 -83 41 -208 99 -276 129 -69 31 -219 103 -335 162 -115 58 -264 130 -330
159 -561 249 -579 258 -1045 527 -91 53 -243 136 -338 184 -108 56 -171 94
-168 101 8 21 116 164 189 252 65 77 87 95 87 72z m-19860 -600 c232 -9 394
-19 980 -65 394 -30 468 -36 630 -50 91 -7 217 -16 280 -20 63 -3 167 -13 230
-20 63 -8 221 -24 350 -35 129 -11 342 -32 474 -45 131 -14 255 -25 275 -25
69 0 69 -11 5 -97 -32 -43 -120 -172 -194 -287 -74 -114 -159 -244 -189 -289
-30 -45 -71 -111 -92 -147 -163 -289 -431 -711 -562 -884 -38 -50 -94 -125
-125 -166 -31 -41 -126 -149 -211 -240 -149 -158 -158 -165 -201 -170 -25 -3
-55 -11 -66 -18 -36 -19 -73 -70 -80 -110 -4 -20 -9 -42 -13 -49 -6 -12 -142
89 -263 196 -51 45 -63 51 -103 51 -43 0 -49 4 -186 128 -77 70 -166 150 -198
177 -32 28 -118 104 -190 170 -73 66 -168 149 -210 185 -429 360 -1167 1053
-1301 1220 -38 47 -83 99 -100 115 -18 17 -60 64 -93 105 -33 41 -77 93 -96
115 -52 59 -195 234 -204 251 -7 12 78 14 595 14 332 0 718 -5 858 -10z
m-1777 -260 c26 -33 47 -63 47 -68 0 -4 -13 -13 -30 -20 -16 -7 -39 -30 -52
-50 -21 -35 -23 -50 -30 -307 -4 -148 -12 -350 -18 -447 -17 -300 -31 -1060
-38 -2078 l-7 -975 -157 158 c-87 87 -158 165 -158 175 1 62 21 517 30 662 10
171 16 349 45 1405 17 597 19 1135 6 1182 -9 32 -7 35 97 141 65 65 129 142
162 194 30 48 55 87 56 87 0 1 22 -26 47 -59z m16010 -13 l218 -12 -110 -99
c-61 -55 -215 -208 -343 -340 -128 -132 -284 -290 -347 -351 -151 -146 -363
-379 -491 -540 -128 -161 -302 -426 -453 -690 -119 -209 -171 -295 -225 -378
-50 -77 -51 -78 -64 -53 -7 14 -32 39 -56 56 l-43 31 -45 -40 c-24 -23 -48
-41 -53 -41 -18 0 -21 -55 -10 -178 11 -111 16 -132 40 -169 20 -30 33 -72 49
-155 11 -62 27 -144 35 -183 8 -38 24 -146 35 -240 11 -93 22 -176 25 -182 2
-7 2 -13 -1 -13 -20 0 -376 260 -595 434 -70 56 -162 129 -205 163 -44 34
-124 103 -179 153 -55 51 -131 118 -170 149 -38 30 -101 87 -140 125 -38 38
-82 76 -96 85 -32 20 -345 307 -454 416 -170 172 -434 472 -607 691 -358 456
-412 516 -823 913 -195 189 -354 345 -353 347 2 1 262 8 578 14 316 6 663 15
770 20 107 5 551 13 985 19 435 7 898 18 1030 26 222 14 574 31 775 39 184 7
1117 -5 1323 -17z m-9948 -47 c182 -5 418 -15 525 -20 449 -25 836 -31 2160
-36 767 -3 1401 -7 1408 -9 9 -3 -2 -34 -36 -102 -27 -54 -54 -114 -62 -133
-27 -73 -485 -990 -545 -1090 -34 -58 -95 -166 -136 -240 -70 -130 -145 -243
-235 -360 -24 -30 -59 -91 -79 -135 -20 -44 -44 -96 -54 -115 -24 -47 -43
-152 -35 -187 4 -15 15 -46 25 -68 25 -55 24 -140 -3 -217 l-21 -63 16 -224
c10 -123 15 -226 14 -228 -2 -2 -38 27 -79 64 -68 62 -109 96 -277 234 -68 56
-399 392 -500 509 -169 194 -398 418 -566 552 -312 250 -600 503 -980 862 -88
84 -185 172 -215 196 -30 24 -100 88 -155 140 -55 53 -145 137 -200 186 -260
230 -387 352 -433 413 -76 102 -79 95 34 88 54 -4 248 -11 429 -17z m11180
-10 c182 -5 427 -10 545 -10 118 0 260 -5 315 -10 55 -5 276 -14 490 -20 515
-13 807 -27 1105 -50 314 -24 671 -43 752 -38 l63 3 6 -60 c4 -33 7 -116 8
-185 1 -148 24 -527 46 -760 28 -305 36 -453 46 -865 6 -225 15 -455 19 -510
5 -55 12 -484 16 -952 l7 -853 -22 0 c-17 0 -21 -5 -17 -17 3 -10 8 -31 12
-48 9 -37 20 -45 -177 127 -151 131 -271 255 -425 439 -229 273 -354 402 -649
669 -335 303 -453 428 -620 660 -33 46 -122 167 -198 269 -77 102 -156 216
-177 252 -22 36 -46 72 -55 79 -9 7 -50 63 -92 123 -41 60 -103 143 -137 184
-33 42 -104 131 -156 198 -52 68 -142 181 -200 252 -57 70 -131 162 -164 203
-33 41 -216 233 -406 425 -312 314 -412 418 -475 494 l-20 24 115 -7 c63 -4
264 -11 445 -16z m-11918 -212 c61 -84 140 -167 261 -278 l123 -113 -27 -17
c-15 -10 -36 -33 -48 -52 -21 -33 -21 -39 -27 -973 -3 -517 -11 -1136 -18
-1375 -7 -239 -11 -565 -9 -725 3 -269 4 -292 23 -324 32 -55 69 -76 130 -76
61 0 98 21 130 76 19 32 20 59 27 564 4 292 12 665 18 830 5 165 10 657 10
1093 l0 793 123 -113 c68 -62 185 -168 261 -236 l137 -123 -23 -37 c-22 -36
-23 -47 -35 -507 -6 -258 -17 -648 -23 -865 -6 -217 -15 -622 -20 -900 -6
-278 -12 -518 -15 -535 -3 -16 -9 -104 -15 -195 -10 -180 -30 -350 -40 -350
-4 0 -43 30 -86 68 l-79 67 34 3 c32 3 27 7 -85 68 -65 35 -132 77 -149 92
-16 16 -46 40 -67 55 -20 15 -46 43 -58 63 -13 19 -34 40 -48 45 -14 5 -132
96 -264 201 l-238 192 0 160 c1 401 21 1877 30 2125 27 770 32 1056 21 1097
-11 42 -42 82 -76 101 -17 10 -15 16 29 77 26 36 51 66 55 66 4 0 22 -19 38
-42z m11318 -193 c3 -11 1 -81 -5 -155 -8 -86 -14 -681 -17 -1650 -6 -1551 -1
-1895 33 -2210 8 -74 17 -256 21 -405 7 -312 21 -291 -112 -165 -44 42 -110
100 -146 130 -164 137 -269 232 -269 245 0 7 -14 24 -31 36 l-32 22 36 18 c19
10 46 35 58 56 23 36 24 49 31 303 4 146 12 396 18 555 6 160 10 493 11 740 0
981 26 1862 66 2240 21 194 20 237 -7 279 l-20 33 82 78 81 79 99 -105 c54
-57 100 -113 103 -124z m-16002 -192 l118 -119 -40 -17 c-53 -24 -82 -72 -87
-145 -2 -31 -11 -138 -19 -237 -26 -309 -35 -759 -40 -2020 -3 -671 -8 -1248
-11 -1283 l-6 -62 -38 21 c-46 26 -177 151 -276 264 -60 68 -69 84 -63 105 4
14 8 248 8 520 2 752 20 2208 31 2450 5 118 15 369 22 557 l12 341 136 -128
c74 -71 188 -182 253 -247z m9861 165 c167 -153 297 -290 292 -308 -5 -14 -13
-98 -51 -485 -8 -88 -20 -200 -25 -250 -5 -49 -14 -205 -20 -345 -6 -140 -15
-329 -20 -420 -15 -240 -28 -706 -32 -1085 l-2 -330 -157 155 -157 155 9 310
c5 171 16 393 24 495 9 102 22 282 30 400 8 118 21 310 29 425 8 116 20 320
26 455 6 135 16 312 22 393 5 82 7 167 4 190 -14 84 -71 137 -149 137 l-36 0
28 68 c36 86 63 142 69 142 3 0 55 -46 116 -102z m10443 -119 c106 -49 384
-165 622 -260 95 -38 275 -113 400 -166 216 -92 473 -193 1101 -435 157 -60
323 -124 370 -143 47 -18 172 -68 279 -110 107 -42 217 -88 245 -102 31 -16
70 -27 99 -28 l49 -2 -2 -338 c0 -187 -2 -341 -4 -343 -2 -2 -21 5 -43 16 -64
33 -500 217 -618 261 -205 76 -609 223 -830 301 -121 43 -276 99 -345 125 -69
26 -199 73 -290 105 -469 164 -1067 400 -1076 424 -21 62 -68 736 -50 736 2 0
44 -18 93 -41z m-21611 -386 c-14 -699 -51 -1891 -66 -2103 -5 -74 -9 -150
-10 -168 l0 -32 -73 57 c-41 32 -86 67 -102 78 l-28 21 2 309 c2 411 17 830
37 1045 21 228 17 352 -14 402 -30 48 -81 72 -143 66 -27 -3 -49 -3 -49 -1 0
3 26 37 59 76 56 69 296 434 357 544 16 29 31 53 33 53 2 0 1 -156 -3 -347z
m5639 210 c-17 -325 -36 -1114 -46 -1908 -6 -495 -13 -902 -15 -904 -1 -2 -26
14 -54 35 l-51 39 5 860 c4 473 11 1067 18 1319 l12 459 42 62 c23 35 52 81
65 104 12 23 24 41 26 41 2 0 1 -48 -2 -107z m11010 0 c-9 -160 -34 -647 -40
-813 -4 -85 -11 -576 -15 -1090 -9 -934 -25 -1681 -38 -1754 l-7 -38 -46 48
c-26 27 -144 148 -263 270 l-217 221 55 -5 c68 -6 117 21 147 80 20 39 21 65
30 532 5 270 13 613 19 761 20 559 32 1003 28 1105 -3 88 -7 111 -26 141 -30
49 -81 73 -143 67 -27 -3 -49 -3 -49 1 0 5 562 571 568 571 1 0 0 -44 -3 -97z
m1129 -139 c134 -133 156 -160 150 -178 -23 -63 -12 -976 16 -1291 5 -60 17
-256 25 -435 15 -306 24 -430 59 -815 9 -88 20 -232 26 -320 6 -88 17 -223 25
-300 8 -77 19 -212 25 -300 14 -205 25 -1181 15 -1260 -7 -59 -8 -60 -23 -36
-9 13 -57 60 -108 105 -245 218 -434 389 -434 392 0 3 18 21 39 42 61 58 64
82 57 432 -3 168 -10 341 -16 385 -30 248 -40 653 -40 1685 0 1105 9 2050 20
2050 3 0 77 -70 164 -156z m-6964 -160 c-6 -109 -15 -293 -20 -409 -5 -115
-16 -295 -24 -400 -8 -104 -17 -237 -21 -295 -3 -58 -13 -181 -21 -275 -8 -93
-21 -277 -27 -407 l-12 -237 -63 57 -63 57 20 45 c18 41 21 79 30 375 10 306
20 489 40 675 10 96 1 135 -42 178 -69 68 -183 52 -233 -33 -36 -62 -59 -283
-74 -730 -5 -132 -9 -241 -9 -243 -1 -2 -16 9 -34 25 -19 15 -75 63 -126 106
l-92 77 36 0 c42 0 45 11 9 31 -33 17 -104 97 -104 116 0 19 47 111 79 153 88
117 176 252 240 370 40 74 104 187 141 250 38 63 116 210 173 325 126 252 201
395 204 391 2 -1 -2 -92 -7 -202z m-8938 -124 l96 -85 -18 -30 c-29 -50 -31
-77 -13 -217 20 -161 22 -595 4 -968 -44 -928 -41 -1734 9 -2335 5 -66 12
-174 16 -240 l6 -120 -23 20 c-13 11 -82 77 -154 146 -71 70 -163 158 -204
196 l-73 69 11 195 c6 107 13 716 16 1355 7 1286 15 1711 42 2041 l17 222 86
-82 c47 -45 129 -120 182 -167z m10015 -25 c26 -33 69 -86 95 -117 l49 -57 -5
-1438 c-3 -791 -9 -1481 -13 -1533 l-8 -95 -60 75 c-33 41 -120 138 -195 215
-158 165 -350 371 -350 376 0 2 24 4 53 4 88 0 135 49 157 166 6 28 10 160 10
293 1 287 15 785 29 1021 6 94 16 285 21 425 6 140 15 293 20 340 5 47 16 166
25 265 23 255 17 241 77 175 27 -30 70 -82 95 -115z m4106 -212 c-1 -49 -7
-252 -13 -453 -6 -201 -15 -484 -20 -630 -18 -485 -30 -1264 -20 -1300 l9 -35
-45 50 c-25 28 -62 69 -81 92 l-35 43 13 67 c11 54 14 228 14 843 l0 775 -23
36 c-31 51 -81 73 -148 66 l-53 -5 26 41 c95 152 254 364 347 465 16 17 30 32
31 32 1 0 0 -39 -2 -87z m-16531 -75 c-1 -46 -9 -159 -17 -253 -20 -222 -35
-614 -35 -892 0 -180 -3 -223 -13 -223 -8 0 -45 26 -83 58 -38 32 -90 73 -116
91 -27 19 -48 36 -48 38 0 2 10 17 22 34 21 27 23 46 30 217 4 103 12 279 18
392 10 202 7 253 -20 285 -8 10 14 42 92 132 57 65 118 137 136 161 19 23 34
42 35 42 1 0 1 -37 -1 -82z m5706 -563 c-4 -352 -9 -763 -10 -913 l-3 -273
-85 67 c-52 41 -84 73 -82 83 1 9 6 171 12 360 10 362 12 401 36 571 16 113
13 158 -16 205 -25 41 -55 57 -116 64 l-52 6 109 155 c61 85 133 192 160 238
28 46 52 82 53 80 1 -2 -2 -291 -6 -643z m13181 480 c38 -49 103 -132 145
-184 42 -51 116 -150 165 -220 l89 -126 -9 -100 c-4 -55 -13 -307 -19 -560
-15 -648 -28 -1051 -40 -1260 -18 -311 -25 -1967 -10 -2213 7 -117 11 -214 9
-216 -4 -5 -382 388 -386 401 -2 5 14 17 34 28 94 50 103 107 103 633 0 440
-13 839 -36 1067 -8 83 -23 267 -34 410 -11 143 -28 355 -39 470 -23 238 -37
451 -46 670 -3 83 -12 242 -20 355 -20 280 -35 631 -34 835 l0 170 30 -35 c17
-19 61 -75 98 -125z m-16007 -7 c46 -40 128 -106 183 -147 55 -41 112 -85 127
-99 26 -24 26 -25 10 -50 -16 -24 -18 -115 -23 -1097 -4 -735 -10 -1126 -19
-1250 -16 -216 -16 -1300 0 -1427 5 -45 8 -83 6 -85 -2 -2 -30 18 -62 45 -33
28 -104 88 -159 134 l-100 84 -12 179 c-6 99 -17 252 -23 340 -35 517 -41 645
-47 990 -6 374 7 1009 28 1455 14 274 17 793 6 913 -4 48 -6 87 -3 87 2 0 42
-33 88 -72z m5265 -177 l172 -153 -17 -26 c-15 -23 -18 -71 -24 -397 -3 -203
-11 -617 -17 -920 -6 -302 -11 -764 -11 -1025 -1 -443 -5 -565 -36 -923 -4
-43 -10 -80 -15 -82 -9 -6 -86 55 -249 200 -69 60 -144 126 -167 145 l-43 35
14 40 c7 22 23 108 35 190 36 251 56 646 71 1405 13 614 26 1182 36 1503 l7
229 36 -34 c20 -19 113 -103 208 -187z m14128 66 c136 -56 573 -219 795 -297
91 -32 221 -79 290 -105 69 -26 256 -93 415 -150 704 -252 851 -308 1162 -441
241 -103 250 -106 307 -101 l58 5 -6 -43 c-3 -24 -9 -200 -12 -390 -4 -190
-11 -345 -16 -345 -5 0 -39 14 -76 31 -198 91 -444 180 -1042 379 -508 168
-993 353 -1645 628 -204 86 -289 118 -337 127 -25 5 -27 9 -32 77 -3 40 -7
211 -10 380 l-4 307 21 -9 c12 -4 72 -28 132 -53z m-9308 -170 c45 -51 113
-128 152 -170 l72 -78 -30 -30 c-46 -45 -53 -88 -41 -231 14 -155 27 -2628 14
-2628 -5 0 -71 62 -147 138 l-137 137 12 245 c6 142 13 763 15 1478 2 677 5
1232 7 1232 2 0 39 -42 83 -93z m3083 -792 l0 -646 -47 58 c-25 32 -72 87
-103 123 -31 36 -106 128 -165 205 -59 77 -112 145 -116 151 -10 12 60 149
135 264 48 74 206 342 258 439 16 28 30 51 33 51 3 0 5 -290 5 -645z m-10784
514 c-20 -122 -36 -384 -36 -576 0 -84 -2 -153 -5 -153 -2 0 -86 66 -187 147
-101 80 -196 154 -212 164 -24 15 -27 19 -14 24 18 7 335 343 412 436 27 33
50 58 53 56 2 -3 -3 -47 -11 -98z m-5833 -195 l-8 -46 -42 73 c-23 41 -45 81
-48 89 -3 9 16 41 47 79 l53 64 3 -106 c1 -58 -1 -127 -5 -153z m4257 75 c58
-52 121 -106 139 -122 l33 -27 -31 -31 c-51 -50 -55 -84 -42 -374 6 -143 13
-557 16 -920 7 -756 12 -873 75 -1670 11 -137 24 -317 30 -400 11 -170 12
-531 2 -557 -6 -15 -36 7 -172 122 -91 78 -179 153 -196 168 -30 27 -31 29
-38 147 -3 66 -13 154 -22 195 -12 57 -17 187 -24 530 -8 437 -3 721 20 1170
6 102 10 580 10 1063 l0 879 48 -40 c26 -22 94 -82 152 -133z m5025 29 c49
-42 147 -138 218 -212 l127 -134 0 -1731 c0 -952 -3 -1731 -7 -1731 -10 0
-338 289 -489 430 l-61 57 4 104 c3 57 8 145 13 194 31 337 40 615 52 1585 19
1678 16 1544 36 1528 9 -7 57 -48 107 -90z m4899 -291 l156 -149 0 -175 c0
-165 3 -280 30 -1003 6 -157 15 -449 20 -650 6 -214 18 -444 29 -555 11 -104
22 -248 25 -320 4 -71 9 -175 12 -229 l6 -99 -65 54 c-151 126 -237 202 -314
281 l-82 83 10 70 c12 76 5 2746 -7 2819 -6 33 -4 37 9 30 8 -5 85 -76 171
-157z m6109 -181 c40 -54 98 -131 130 -170 51 -63 56 -74 50 -101 -18 -69 3
-1666 27 -2015 32 -495 42 -705 48 -1095 7 -418 8 -442 27 -475 19 -32 51 -54
112 -77 21 -8 20 -10 -28 -68 -109 -129 -128 -177 -102 -253 l15 -45 -41 -41
-41 -41 -57 56 c-50 49 -275 234 -358 294 l-28 20 26 38 c34 50 39 106 26 277
-26 347 -20 1986 11 2575 8 158 41 1214 40 1300 0 14 10 6 36 -30 19 -28 67
-94 107 -149z m-15405 -173 c59 -69 62 -74 62 -125 0 -84 29 -382 51 -513 11
-66 26 -163 34 -215 8 -52 27 -171 41 -263 21 -127 24 -171 16 -179 -8 -8 -12
-54 -12 -128 0 -63 -5 -131 -10 -150 -7 -23 -7 -36 0 -38 6 -2 10 -171 10
-482 0 -442 13 -857 40 -1253 5 -82 10 -298 10 -480 l0 -332 -58 60 c-31 33
-126 134 -211 223 l-154 163 27 28 c57 60 76 228 64 571 -4 123 -15 308 -23
410 -9 102 -24 311 -35 465 -11 154 -24 332 -30 395 -5 63 -14 446 -19 850
-10 766 -18 1100 -27 1185 l-6 50 84 -85 c45 -47 111 -118 146 -157z m-4896
19 c38 -31 168 -164 290 -296 l223 -239 7 -59 c13 -112 74 -173 165 -166 l52
5 115 -113 c62 -62 176 -182 251 -266 184 -204 584 -609 715 -721 58 -50 146
-121 197 -159 149 -111 387 -311 579 -487 209 -192 483 -432 664 -581 69 -58
180 -154 245 -214 66 -60 146 -131 180 -158 33 -28 70 -59 83 -69 12 -10 22
-30 22 -44 0 -40 37 -104 73 -125 22 -14 50 -20 89 -20 52 0 62 -4 120 -48
350 -265 655 -520 791 -660 59 -62 107 -117 107 -122 0 -13 -1748 -13 -2570 0
-609 10 -974 20 -1370 40 -113 5 -315 15 -450 20 -226 10 -429 26 -439 36 -2
2 2 11 10 20 10 13 11 18 2 21 -7 3 -27 14 -45 27 -32 21 -33 24 -36 96 -4
123 -52 832 -68 1010 -8 91 -19 253 -24 360 -5 107 -16 263 -24 345 -8 83 -22
231 -31 330 -8 99 -24 270 -35 380 -23 225 -45 545 -60 865 -12 255 -16 1025
-5 1092 l7 48 52 -46 c28 -25 81 -71 118 -102z m23111 -13 c586 -242 1135
-449 1506 -569 152 -48 321 -105 376 -125 55 -20 156 -56 225 -80 135 -46 301
-112 500 -199 l125 -54 3 -211 c3 -237 9 -220 -75 -201 -53 12 -185 33 -448
70 -869 121 -1406 223 -2099 396 -165 41 -338 81 -384 89 -47 8 -86 16 -88 18
-1 1 -4 232 -6 514 l-4 511 39 -19 c21 -11 169 -74 330 -140z m-11943 -33 c30
-27 184 -175 342 -329 212 -205 293 -290 307 -321 20 -46 60 -81 107 -92 38
-9 375 -346 400 -400 10 -22 51 -72 91 -112 40 -40 95 -103 122 -140 27 -37
93 -107 148 -156 54 -49 163 -152 243 -230 79 -77 174 -167 210 -200 81 -72
410 -388 670 -642 177 -172 265 -253 370 -339 21 -16 82 -69 136 -116 55 -47
142 -121 194 -163 52 -43 104 -88 115 -100 11 -12 45 -42 75 -66 30 -25 97
-82 149 -128 52 -45 122 -104 157 -129 l64 -47 0 -65 c0 -90 13 -131 55 -171
33 -32 41 -35 98 -35 50 0 68 5 91 22 l29 23 46 -41 c25 -22 106 -86 180 -141
74 -55 155 -122 180 -148 25 -25 75 -69 111 -97 36 -28 78 -65 94 -82 l30 -31
-45 -1 c-24 0 -150 -7 -279 -15 -179 -11 -642 -17 -1935 -23 -935 -5 -1854
-12 -2041 -16 l-342 -7 -8 119 c-13 170 -10 461 6 662 11 143 12 237 2 540 -7
201 -20 436 -29 521 -11 108 -16 260 -17 500 -2 324 -4 355 -29 515 -16 93
-33 189 -39 213 -6 24 -8 71 -5 105 3 34 1 96 -4 137 -33 259 -38 336 -23 380
17 50 12 89 -20 140 -14 24 -26 73 -38 155 -9 66 -23 164 -32 218 -8 54 -18
169 -22 255 -8 179 -17 171 86 78z m-1095 -134 c27 -31 90 -89 138 -131 l89
-76 2 -240 c1 -132 8 -609 15 -1060 15 -957 10 -1499 -18 -2063 -1 -8 -36 19
-78 59 -43 40 -95 84 -115 99 -21 15 -65 53 -98 83 l-60 56 0 1697 0 1696 37
-33 c21 -18 60 -57 88 -87z m4734 -30 c64 -57 155 -133 204 -169 l87 -65 0
-552 c0 -303 -5 -657 -10 -786 -5 -129 -12 -535 -16 -902 -7 -605 -9 -666 -23
-658 -9 5 -46 35 -82 67 -37 32 -89 77 -116 100 l-50 41 -6 129 c-3 70 -11
182 -16 248 -6 66 -15 206 -21 310 -6 105 -17 249 -25 320 -8 72 -19 312 -25
535 -5 223 -12 448 -15 500 -3 52 -10 239 -15 415 -5 176 -12 383 -16 460 -7
135 -6 139 11 125 10 -8 71 -62 134 -118z m-9194 -128 c61 -47 216 -167 345
-266 129 -100 250 -193 267 -207 l33 -26 0 -95 c0 -115 23 -172 80 -202 63
-33 126 -23 182 29 l26 25 139 -119 c76 -65 163 -138 193 -163 30 -25 89 -74
130 -110 41 -36 109 -92 150 -125 41 -32 104 -84 140 -115 36 -31 94 -79 129
-106 97 -75 221 -173 298 -236 102 -82 131 -98 184 -98 32 0 55 -7 75 -22 58
-45 273 -226 399 -337 72 -63 157 -135 191 -160 34 -26 90 -73 126 -106 64
-59 65 -61 71 -122 9 -111 72 -179 157 -170 25 2 54 7 65 11 16 5 43 -15 125
-89 155 -141 431 -380 526 -458 46 -37 116 -98 156 -135 40 -37 89 -78 108
-91 19 -13 85 -72 145 -130 199 -191 380 -358 476 -440 52 -43 121 -105 154
-136 l60 -56 -2335 7 c-1284 3 -2438 9 -2565 12 l-230 7 -7 120 c-5 66 -17
190 -28 275 -11 85 -25 214 -30 285 -5 72 -14 173 -19 225 -5 52 -12 399 -16
770 -3 371 -10 745 -16 830 -6 85 -14 475 -18 865 l-8 710 -35 100 c-20 55
-39 131 -43 169 l-7 69 59 -51 c32 -29 108 -90 168 -138z m15438 -292 c59 -53
107 -100 107 -106 0 -5 -9 -20 -21 -32 -38 -40 -40 -86 -13 -244 13 -80 40
-314 59 -520 19 -206 39 -411 45 -455 5 -44 14 -161 20 -260 5 -99 15 -250 20
-335 6 -85 15 -229 20 -319 l9 -164 -99 -111 c-55 -61 -112 -128 -127 -148
-15 -21 -66 -87 -113 -147 l-85 -109 -7 417 c-3 229 -14 526 -23 661 -31 473
-35 569 -45 1055 -5 270 -13 621 -16 780 l-7 290 84 -78 c46 -43 132 -122 192
-175z m-4746 93 c27 -33 98 -123 156 -200 58 -77 138 -176 177 -220 120 -134
190 -225 190 -246 0 -72 53 -130 350 -380 129 -109 300 -257 380 -329 248
-223 294 -262 330 -277 19 -9 64 -41 100 -72 111 -96 362 -331 425 -397 33
-34 110 -107 171 -161 345 -306 397 -357 633 -622 156 -176 589 -618 644 -658
75 -54 340 -267 354 -285 11 -13 -21 -16 -280 -21 -160 -4 -377 -13 -482 -21
-104 -8 -383 -17 -620 -20 -415 -6 -713 -15 -1145 -35 -113 -6 -440 -13 -728
-17 l-524 -6 18 33 c15 29 17 63 15 259 -1 236 -18 604 -27 630 -4 8 -10 195
-15 415 -4 220 -13 454 -19 520 -6 66 -11 167 -10 225 0 57 -4 161 -10 230
-20 247 -31 429 -40 655 -5 158 -15 263 -28 335 -11 58 -26 180 -32 273 -6 92
-20 226 -31 298 -21 143 -23 178 -11 164 5 -6 31 -37 59 -70z m-5550 -240 l63
-60 10 -157 c6 -87 19 -206 30 -265 24 -130 24 -133 5 -133 -20 0 -19 -5 6
-40 12 -16 33 -68 46 -117 22 -79 25 -118 33 -393 5 -168 12 -363 15 -435 5
-87 1 -200 -10 -340 -18 -224 -29 -502 -44 -1080 -6 -198 -13 -393 -17 -433
l-6 -73 -52 48 c-29 26 -93 83 -143 125 l-92 78 5 67 c13 187 27 744 31 1208
4 489 -11 1778 -24 2019 l-6 110 44 -35 c24 -18 72 -61 106 -94z m4767 5 l88
-65 -6 -105 c-4 -58 -11 -148 -16 -200 -34 -331 -41 -415 -51 -590 -5 -107
-13 -599 -16 -1092 l-6 -897 -70 57 -70 57 7 770 c4 423 11 880 16 1015 5 135
9 444 10 688 0 363 2 442 13 435 7 -4 53 -37 101 -73z m5961 -298 c19 -21 73
-85 120 -143 65 -79 84 -109 79 -124 -13 -44 -16 -190 -5 -312 6 -70 13 -256
17 -413 3 -157 11 -301 16 -320 6 -19 28 -51 50 -71 l38 -36 -52 -65 c-29 -35
-75 -93 -101 -127 -27 -35 -50 -61 -52 -59 -3 3 -19 228 -35 513 -6 99 -17
236 -25 305 -8 69 -28 280 -45 470 -17 190 -35 362 -40 383 -4 20 -6 37 -4 37
2 0 20 -17 39 -38z m-5501 -56 c4 -28 13 -116 21 -196 42 -415 45 -453 35
-489 -6 -24 -6 -82 0 -166 5 -72 14 -195 20 -275 6 -80 15 -176 20 -215 21
-154 31 -325 36 -645 3 -184 12 -406 20 -494 7 -87 17 -269 21 -404 6 -243 6
-245 -13 -231 -37 26 -126 103 -188 162 -34 32 -80 72 -102 89 -39 28 -41 32
-34 61 5 18 11 469 14 1002 5 959 13 1237 40 1510 8 77 20 193 26 257 l12 117
33 -16 c29 -14 34 -22 39 -67z m7167 -160 c676 -171 1293 -288 2124 -402 236
-32 471 -71 526 -87 l44 -13 3 -297 c1 -186 -1 -297 -7 -297 -6 0 -45 11 -88
25 -43 13 -116 33 -163 44 -47 11 -137 36 -200 55 -132 40 -193 54 -410 96
-509 97 -1154 232 -1790 375 -63 14 -156 34 -207 46 -91 20 -93 21 -102 55
-13 48 -53 98 -90 114 l-31 12 0 181 0 180 48 -7 c27 -3 181 -40 343 -80z
m-1035 -436 c49 -41 124 -109 168 -150 l78 -75 -33 -27 c-18 -15 -56 -35 -83
-44 -41 -14 -70 -36 -142 -108 l-91 -91 -7 235 c-3 129 -9 264 -13 300 -7 76
-17 79 123 -40z m820 -325 c87 -20 236 -53 329 -75 94 -21 197 -44 230 -50 33
-7 161 -34 285 -62 124 -27 494 -103 822 -169 328 -66 616 -126 640 -135 24
-8 128 -37 233 -65 104 -27 239 -67 300 -87 l110 -38 26 -254 c15 -140 25
-257 23 -259 -2 -2 -16 2 -31 9 -46 21 -433 146 -678 219 -444 133 -631 191
-715 222 -47 17 -186 57 -310 89 -124 32 -313 86 -420 120 -160 51 -640 224
-863 311 -78 31 -267 121 -267 128 1 3 15 15 33 26 18 11 41 39 52 62 11 23
25 42 31 43 6 0 82 -16 170 -35z m-166 -498 c206 -83 730 -273 930 -336 107
-34 296 -89 420 -121 124 -32 270 -74 325 -94 92 -33 255 -83 720 -221 271
-81 592 -189 664 -224 36 -17 83 -33 106 -37 l42 -6 21 -141 c12 -78 27 -185
33 -237 6 -52 17 -126 24 -165 8 -38 12 -72 9 -74 -2 -2 -46 7 -96 21 -51 14
-178 49 -283 77 -104 29 -262 75 -350 102 -209 66 -533 150 -935 245 -408 95
-1334 334 -1625 419 -298 87 -611 189 -687 225 -35 17 -78 30 -95 30 -32 0
-43 12 -24 25 5 3 45 49 87 103 74 91 105 129 304 362 49 58 87 113 98 142
l16 47 91 -48 c49 -26 142 -69 205 -94z m-909 -778 c40 -56 204 -122 629 -253
346 -106 1207 -332 1820 -477 442 -105 725 -178 901 -234 79 -25 236 -71 349
-101 113 -31 232 -64 265 -74 33 -10 107 -31 164 -46 58 -16 112 -35 121 -44
9 -9 20 -38 23 -64 4 -26 20 -93 36 -149 28 -98 30 -112 35 -367 2 -146 8
-280 12 -299 6 -33 6 -34 -22 -28 -16 3 -137 28 -269 56 -132 27 -382 80 -555
116 -317 66 -628 139 -838 195 -63 16 -272 64 -465 105 -194 42 -422 92 -507
111 -178 40 -787 200 -1060 279 -102 29 -313 87 -470 130 -383 103 -455 125
-666 206 -225 86 -263 89 -326 31 -35 -33 -41 -46 -45 -89 -6 -60 15 -113 58
-144 40 -28 367 -152 523 -199 72 -21 235 -66 361 -100 127 -34 325 -89 440
-122 610 -173 1008 -272 1620 -403 171 -37 389 -87 485 -112 332 -86 690 -166
1367 -303 172 -35 230 -48 354 -80 l35 -10 13 -133 c7 -74 18 -166 25 -206
l12 -71 -30 5 c-17 3 -94 14 -171 26 -169 24 -600 104 -670 124 -27 7 -86 20
-130 29 -44 8 -222 46 -395 85 -173 39 -432 91 -575 116 -143 26 -435 84 -650
130 -555 120 -978 201 -1140 219 -167 19 -602 59 -880 81 -110 8 -274 27 -365
41 -136 21 -173 24 -207 15 -42 -11 -89 -51 -104 -86 -4 -11 -8 259 -8 600
l-1 621 44 36 c45 38 86 108 86 147 0 16 84 106 298 319 164 163 330 335 368
381 l68 84 9 -34 c5 -18 17 -45 28 -60z m-1203 -4494 c26 -703 39 -963 62
-1215 5 -58 19 -233 29 -390 11 -157 30 -357 41 -444 11 -88 27 -234 35 -325
9 -91 22 -213 30 -271 8 -58 21 -181 30 -275 8 -93 20 -204 25 -245 5 -41 12
-113 15 -160 3 -47 12 -148 20 -225 8 -77 17 -185 20 -240 10 -176 35 -464 60
-690 13 -121 26 -256 28 -301 l5 -81 -222 -7 c-121 -3 -279 -13 -351 -21 -71
-8 -133 -15 -136 -15 -4 0 -3 19 2 43 22 112 1 1769 -25 1972 -8 66 -20 187
-26 268 -5 82 -14 167 -19 190 -5 23 -13 80 -16 127 -10 122 -33 283 -55 370
-19 81 -24 106 -70 394 -34 211 -44 241 -89 279 -87 73 -227 22 -247 -90 -4
-21 -21 -74 -39 -118 -18 -44 -45 -118 -59 -165 -38 -122 -78 -214 -165 -385
-138 -269 -195 -434 -297 -859 -57 -239 -148 -562 -161 -576 -11 -11 6 1728
18 1870 20 229 17 307 -11 358 -25 44 -85 82 -130 82 -44 0 -105 -38 -129 -80
-19 -34 -24 -64 -31 -183 -19 -294 -29 -736 -35 -1492 -4 -429 -10 -820 -15
-870 -12 -114 -25 -873 -16 -908 17 -71 107 -127 180 -113 42 8 100 55 123 99
29 58 94 263 153 487 32 124 79 288 103 365 91 287 207 697 262 925 64 269
117 442 180 585 52 118 165 338 171 332 10 -10 34 -165 44 -288 6 -74 15 -150
21 -169 5 -19 14 -105 20 -190 5 -85 17 -204 26 -265 13 -92 17 -263 22 -1040
5 -716 9 -935 19 -952 6 -12 12 -24 12 -26 0 -22 -647 -46 -1485 -57 -739 -9
-1299 -22 -1705 -40 -118 -5 -343 -12 -498 -16 l-284 -7 15 29 c8 16 20 65 27
109 6 44 26 152 45 240 18 88 39 203 45 255 6 52 20 145 30 205 10 61 28 182
40 270 12 88 32 237 45 330 38 272 40 292 100 1050 8 105 20 264 25 355 6 91
18 234 26 318 10 93 14 216 12 310 -3 172 -15 214 -70 255 -35 26 -116 34
-154 14 -69 -36 -86 -76 -154 -367 -45 -195 -89 -294 -204 -455 -89 -125 -142
-178 -220 -217 -137 -69 -196 -27 -196 139 0 139 81 403 154 503 30 42 39 47
94 57 74 14 105 35 132 89 25 51 25 77 0 129 -40 83 -162 113 -288 71 -106
-36 -218 -174 -291 -358 -137 -352 -151 -617 -40 -790 62 -96 158 -158 278
-179 58 -11 124 -5 198 17 19 5 14 -9 -41 -107 -93 -168 -397 -748 -494 -944
-46 -93 -99 -195 -118 -225 -39 -63 -101 -233 -145 -400 -17 -63 -44 -143 -60
-177 -21 -45 -29 -77 -29 -118 0 -51 3 -59 38 -96 60 -64 153 -67 213 -6 35
34 102 169 114 227 24 120 107 366 142 422 13 21 90 170 171 330 173 341 380
732 496 937 71 126 81 141 84 115 8 -63 -41 -576 -83 -879 -13 -93 -31 -226
-40 -295 -9 -69 -27 -190 -40 -270 -13 -80 -29 -185 -35 -235 -20 -159 -60
-327 -88 -375 -23 -39 -27 -55 -26 -120 1 -45 8 -91 18 -114 9 -21 16 -42 16
-46 0 -7 -497 -23 -1315 -40 -269 -6 -1263 -10 -2208 -10 l-1718 0 54 63 c143
168 171 294 126 553 -22 128 -75 364 -115 509 -31 110 -141 367 -188 438 -81
121 -250 250 -389 296 -123 41 -287 50 -602 31 -179 -11 -331 -37 -417 -71
-28 -11 -52 -18 -54 -16 -2 1 1 117 7 257 5 140 12 428 16 639 l6 383 326 -5
c248 -4 363 -10 482 -25 86 -12 240 -26 343 -32 223 -12 259 -7 311 51 31 34
35 46 35 92 0 65 -25 109 -79 136 -32 17 -72 22 -237 31 -110 6 -249 17 -309
25 -288 39 -836 59 -961 36 -77 -15 -177 -76 -205 -125 l-24 -41 -7 -560 c-3
-308 -11 -729 -17 -935 -6 -206 -11 -602 -12 -880 -1 -278 -6 -554 -11 -615
-8 -105 -7 -111 16 -159 l24 -49 -56 7 c-32 3 -331 13 -667 21 -335 8 -718 20
-850 25 -132 5 -264 10 -292 10 -55 0 -71 13 -29 24 13 3 39 23 59 45 35 39
64 117 118 321 12 47 46 148 75 225 47 128 73 208 88 275 l5 25 148 0 c178 0
210 6 251 46 l31 31 3 -440 c3 -427 4 -441 24 -468 76 -102 206 -94 262 16
l23 45 -3 1005 c-2 737 1 1050 10 1175 14 182 56 635 72 774 12 95 1 177 -27
216 -21 28 -89 65 -121 65 -52 0 -142 -62 -142 -97 0 -16 0 -16 -43 2 -48 20
-73 19 -122 -5 -54 -26 -80 -75 -94 -170 -6 -42 -45 -178 -90 -311 -43 -129
-107 -334 -141 -455 -34 -120 -81 -284 -105 -364 -101 -335 -124 -431 -231
-960 -14 -69 -48 -184 -76 -260 -28 -74 -68 -198 -90 -275 -22 -77 -48 -165
-59 -195 -11 -30 -25 -69 -31 -86 -22 -65 19 -150 87 -180 l30 -13 -30 0 c-16
-1 -136 6 -265 14 -129 8 -437 19 -685 25 -635 14 -922 26 -1710 72 -268 15
-1138 15 -1424 -1 -129 -7 -667 -11 -1472 -11 l-1269 0 0 188 c1 245 15 464
39 610 30 178 59 434 76 667 9 116 29 363 45 550 137 1581 149 2270 65 3610
-8 127 -19 318 -25 425 -6 107 -19 314 -30 460 -40 554 -43 647 -36 1010 3
195 9 374 12 397 l7 43 56 -6 c31 -3 93 -9 138 -14 45 -5 191 -14 325 -20 134
-6 389 -17 568 -26 555 -25 981 -34 1950 -39 1675 -9 2410 -16 2685 -26 149
-5 1410 -12 2804 -15 2466 -6 2536 -6 2570 -25 50 -27 110 -25 153 5 l36 24
493 7 c272 4 1205 11 2074 16 869 5 1641 13 1715 18 250 18 621 30 1235 41
336 5 720 15 855 20 505 21 828 31 1280 40 256 6 517 14 580 20 63 6 318 14
565 18 429 7 452 8 485 28 l35 20 6 -1425 c4 -784 11 -1561 17 -1726z m367
2215 c60 -37 275 -69 720 -105 364 -30 697 -61 810 -76 113 -15 667 -124 1078
-213 192 -42 464 -96 605 -121 141 -25 408 -79 592 -119 184 -41 389 -86 455
-101 436 -95 961 -181 1016 -165 18 6 35 10 36 10 2 0 3 -10 3 -22 0 -38 73
-415 96 -496 l15 -53 -43 -58 c-24 -32 -65 -85 -93 -118 -27 -34 -72 -89 -100
-124 -27 -35 -74 -89 -104 -121 l-53 -58 -22 32 c-29 44 -78 75 -129 83 -23 4
-123 26 -222 50 -99 25 -270 60 -380 80 -434 79 -679 139 -1015 249 -562 185
-980 302 -1485 417 -121 27 -429 97 -685 155 -629 143 -760 185 -1018 329 -43
23 -77 35 -103 35 l-39 0 0 298 c0 279 1 295 16 265 9 -18 31 -42 49 -53z m11
-863 c201 -120 454 -191 1504 -423 580 -127 1164 -288 1675 -461 316 -107 595
-173 1120 -269 77 -14 210 -42 295 -63 85 -21 174 -42 197 -47 l43 -9 -152
-165 c-83 -91 -190 -208 -239 -260 l-87 -95 -124 43 c-67 23 -229 77 -358 118
-129 42 -332 110 -450 151 -349 121 -702 235 -1070 343 -190 56 -401 119 -470
140 -395 122 -782 213 -1240 290 -259 44 -501 97 -594 131 -44 16 -90 29 -103
29 l-23 0 0 296 c0 162 3 293 8 291 4 -2 34 -20 68 -40z m4 -888 c93 -29 349
-83 562 -119 533 -90 744 -141 1408 -340 151 -45 372 -111 490 -145 118 -35
328 -102 465 -148 592 -199 710 -239 890 -297 105 -34 220 -73 257 -88 67 -25
68 -26 50 -46 -9 -12 -69 -77 -132 -146 -162 -176 -270 -296 -305 -339 -17
-21 -51 -61 -78 -90 l-47 -53 -203 97 c-349 168 -697 303 -1189 460 -358 115
-612 202 -918 315 -107 39 -347 116 -535 170 -355 103 -503 157 -619 228 -56
34 -79 42 -118 42 l-48 0 0 93 c0 52 -3 169 -7 260 -3 98 -2 167 3 167 5 0 38
-9 74 -21z m-11 -840 c82 -50 301 -128 619 -220 189 -54 412 -124 495 -155
347 -128 562 -202 917 -316 390 -126 539 -179 835 -298 183 -74 485 -214 485
-225 0 -7 -207 -238 -355 -396 -49 -53 -114 -124 -143 -158 -75 -86 -76 -86
-163 -45 -67 32 -127 67 -364 209 -444 267 -660 371 -1243 604 -191 76 -428
175 -527 219 -307 137 -413 176 -536 196 l-36 6 -6 78 c-4 42 -9 160 -12 262
-3 102 -8 202 -11 223 -5 43 -1 44 45 16z m166 -951 c55 -22 180 -75 278 -119
98 -44 334 -142 525 -218 523 -208 723 -303 1056 -498 203 -120 320 -190 378
-225 32 -19 71 -41 88 -48 16 -7 30 -16 30 -19 0 -7 -307 -313 -423 -420 -53
-50 -58 -53 -75 -38 -9 8 -62 40 -117 70 -156 85 -458 263 -590 347 -178 115
-302 184 -422 236 -59 25 -238 110 -398 187 l-290 142 -73 0 c-65 0 -73 2 -77
20 -5 18 -45 580 -45 619 0 21 25 15 155 -36z m149 -1002 c115 -58 287 -140
384 -182 169 -75 304 -149 482 -266 95 -62 408 -246 544 -319 49 -27 91 -51
94 -53 5 -6 -377 -396 -388 -396 -3 0 -11 13 -18 29 -14 31 -130 136 -227 206
-65 46 -217 127 -390 206 -60 28 -175 87 -255 132 -135 76 -149 82 -213 85
l-67 4 -44 -44 -44 -44 -7 71 c-3 38 -17 160 -30 270 -13 110 -27 238 -30 285
-4 47 -9 93 -11 103 -3 9 -1 17 4 17 5 0 102 -47 216 -104z m-13723 -173 c-25
-307 -34 -591 -28 -967 6 -389 6 -389 -14 -368 -42 46 -77 56 -215 60 l-131 4
8 42 c21 112 63 280 115 456 31 107 70 242 86 300 97 347 178 613 186 606 2
-2 -1 -62 -7 -133z m13759 -720 c63 -36 232 -123 375 -193 216 -106 274 -140
343 -196 84 -70 124 -100 158 -120 17 -10 14 -16 -37 -75 -49 -57 -101 -123
-268 -344 -25 -33 -75 -94 -111 -135 -70 -80 -141 -177 -182 -250 -30 -52
-155 -217 -210 -279 -29 -31 -46 -41 -68 -41 -33 0 -33 -1 -21 54 7 27 1 111
-19 295 -32 286 -46 461 -36 461 3 0 27 -15 53 -34 53 -37 178 -113 232 -141
108 -55 231 14 231 130 0 79 -27 108 -200 210 -36 21 -92 60 -125 86 -80 63
-150 99 -191 99 -26 0 -34 4 -34 18 0 9 -5 55 -10 102 -8 74 -40 430 -40 452
0 4 10 -2 23 -13 12 -12 74 -50 137 -86z m-11456 -293 c80 -13 157 -53 229
-119 62 -57 86 -98 157 -266 66 -155 180 -641 180 -767 0 -122 -124 -244 -331
-327 -138 -55 -419 -86 -774 -84 -207 2 -394 18 -412 37 -3 3 1 20 8 38 10 26
15 182 19 713 4 374 7 681 8 681 1 1 21 4 45 6 24 3 72 17 108 31 85 34 164
47 334 56 209 12 363 12 429 1z"/>
<path d="M2495 10531 c-23 -10 -49 -31 -59 -46 -39 -59 -87 -232 -121 -430
-55 -326 -60 -414 -60 -1010 0 -539 5 -647 39 -879 9 -56 23 -155 31 -221 23
-176 52 -329 96 -510 22 -88 44 -196 49 -240 5 -44 21 -131 36 -194 31 -131
59 -173 126 -191 100 -27 183 37 209 161 19 93 157 570 188 651 17 42 41 99
55 127 50 97 127 286 150 367 13 44 38 113 55 152 17 39 67 165 110 279 75
198 174 431 219 518 22 44 203 348 225 380 13 18 15 13 27 -55 6 -41 25 -143
41 -226 37 -198 64 -390 84 -594 9 -91 22 -205 31 -255 35 -217 46 -404 53
-885 6 -445 8 -488 25 -523 28 -57 70 -82 136 -82 65 0 109 26 134 80 15 31
17 82 16 434 0 358 -9 623 -25 766 -3 28 -17 133 -30 235 -13 102 -34 273 -45
380 -21 192 -32 266 -105 665 -20 110 -41 261 -46 335 -18 254 -40 472 -50
499 -13 33 -46 69 -81 87 -58 30 -150 8 -187 -45 -10 -14 -50 -125 -90 -246
-40 -121 -86 -254 -103 -295 -32 -79 -126 -250 -202 -369 -80 -124 -213 -414
-305 -661 -28 -75 -69 -181 -91 -235 -53 -128 -72 -182 -103 -280 -14 -44 -56
-147 -95 -230 -38 -82 -84 -190 -103 -240 l-34 -90 -17 90 c-22 115 -55 331
-63 415 -3 36 -12 103 -20 150 -31 193 -38 388 -32 870 3 261 11 520 17 575
21 197 63 432 96 538 19 60 34 125 34 144 0 52 -36 109 -85 133 -51 25 -78 25
-130 1z"/>
<path d="M6213 10411 c-76 -35 -114 -123 -132 -308 -20 -200 -30 -808 -33
-2003 -3 -1210 -3 -1215 18 -1250 63 -107 205 -107 268 0 21 35 21 46 27 1465
6 1454 13 1740 46 1860 26 100 27 121 3 169 -16 33 -32 50 -64 65 -52 26 -79
26 -133 2z"/>
<path d="M10584 10296 c-37 -16 -72 -51 -86 -86 -6 -14 -14 -128 -19 -255 -5
-126 -13 -349 -18 -495 -6 -146 -11 -534 -11 -862 0 -539 -2 -613 -20 -755
-11 -87 -25 -185 -31 -218 -18 -98 -16 -376 4 -482 35 -188 92 -263 200 -263
53 0 102 30 131 80 20 34 21 54 26 495 l5 460 29 60 c15 33 42 98 58 145 35
101 82 189 191 359 148 233 180 285 247 411 37 69 93 168 125 220 32 52 77
138 100 190 24 52 60 127 81 165 l39 70 3 -450 c5 -572 -11 -957 -53 -1285
-25 -193 -44 -454 -50 -670 -4 -113 -13 -274 -21 -357 -11 -118 -12 -162 -4
-195 36 -133 189 -159 272 -47 29 39 54 266 63 574 7 228 19 403 41 590 57
481 67 730 65 1535 -1 382 -4 733 -7 780 -9 133 -47 197 -129 219 -91 24 -164
-27 -225 -155 -22 -46 -63 -113 -90 -149 -28 -36 -50 -71 -50 -77 0 -12 -110
-214 -141 -259 -10 -14 -37 -70 -60 -125 -24 -54 -79 -161 -123 -236 -45 -76
-108 -188 -141 -249 -33 -61 -97 -168 -143 -237 l-84 -127 7 460 c3 253 10
530 15 615 31 504 26 550 -76 600 -47 23 -77 25 -120 6z"/>
<path d="M4935 10210 c-46 -22 -74 -64 -86 -124 -12 -59 13 -490 46 -781 53
-479 68 -600 94 -775 69 -463 83 -643 90 -1175 6 -466 7 -492 26 -524 33 -56
68 -76 135 -76 67 0 102 20 135 76 24 41 25 99 15 664 -7 338 -25 602 -56 798
l-6 38 49 -6 c27 -4 125 2 227 14 204 24 251 40 297 104 54 74 33 180 -44 222
-36 19 -88 18 -192 -5 -27 -5 -112 -14 -190 -20 -77 -5 -150 -12 -162 -15 -17
-6 -22 -2 -27 22 -13 65 -38 266 -66 533 -41 386 -48 466 -55 675 -10 277 -20
315 -101 355 -51 25 -78 25 -129 0z"/>
<path d="M8524 10111 c-93 -57 -363 -504 -487 -806 -105 -257 -165 -500 -152
-610 l7 -53 -374 -4 c-360 -4 -375 -4 -419 -26 -31 -15 -53 -35 -70 -65 l-24
-42 0 -655 0 -655 24 -42 c26 -45 86 -83 131 -83 34 0 102 36 123 65 33 45 37
121 37 656 l0 528 673 4 c518 3 710 8 837 20 92 9 261 16 381 17 l216 0 7 -61
c3 -34 6 -218 6 -408 0 -190 5 -364 10 -385 18 -80 76 -130 150 -130 80 0 139
56 149 141 3 27 3 239 0 473 -5 350 -9 437 -23 494 -22 90 -47 130 -104 164
l-47 27 -233 -1 c-213 -2 -233 0 -227 15 17 41 26 86 22 110 -2 14 -25 125
-51 246 -51 241 -93 391 -183 650 -107 306 -148 386 -216 418 -47 23 -124 22
-163 -2z m104 -569 c79 -232 113 -355 157 -570 26 -129 53 -233 67 -262 l24
-48 -45 -6 c-26 -3 -180 -9 -343 -12 -249 -5 -298 -4 -298 7 4 206 87 468 248
779 80 154 130 240 141 240 3 0 25 -58 49 -128z"/>
<path d="M19750 6550 c-19 -4 -57 -19 -84 -33 -27 -15 -64 -27 -82 -27 -124 0
-207 -58 -236 -165 -44 -161 -56 -553 -60 -1985 -3 -1059 -3 -1065 18 -1100
63 -107 205 -107 268 0 21 35 21 48 27 1315 6 1153 16 1605 35 1624 3 3 58 14
122 23 288 41 299 42 405 30 56 -7 154 -14 217 -18 63 -3 144 -12 180 -19 111
-24 179 5 214 88 17 41 18 51 7 88 -30 100 -114 137 -346 150 -88 5 -207 16
-265 24 -108 15 -357 18 -420 5z"/>
<path d="M7263 6470 c-57 -12 -88 -36 -114 -88 -17 -33 -20 -52 -14 -80 11
-52 10 -84 -3 -187 -17 -129 -40 -402 -52 -600 -17 -299 -32 -1115 -28 -1595
3 -449 4 -467 24 -510 33 -70 64 -93 132 -97 44 -3 64 0 89 16 70 44 67 19 64
565 -2 504 11 1254 29 1591 16 292 51 659 65 673 11 11 312 -51 435 -90 169
-54 254 -96 321 -156 84 -76 104 -128 104 -272 0 -105 -3 -120 -27 -170 -38
-77 -143 -206 -226 -278 -70 -60 -226 -166 -370 -251 -39 -24 -85 -58 -101
-77 -89 -100 -20 -246 115 -246 32 0 63 10 111 37 112 62 374 239 456 310 100
85 235 255 286 359 113 229 92 515 -51 724 -43 62 -167 164 -256 210 -252 131
-811 250 -989 212z"/>
<path d="M15053 6329 c-45 -22 -83 -82 -83 -132 0 -77 66 -149 164 -179 121
-35 343 -64 584 -74 98 -5 152 -11 153 -18 0 -6 5 -310 10 -676 5 -366 13
-719 18 -785 17 -221 25 -964 12 -1185 -6 -113 -13 -262 -14 -331 -2 -121 -1
-127 25 -166 50 -76 151 -93 219 -36 52 44 60 78 72 302 15 268 13 1239 -3
1431 -11 133 -31 1429 -22 1440 2 3 174 5 382 6 356 1 380 2 416 21 54 27 77
63 82 125 5 63 -21 109 -78 142 -34 20 -55 21 -595 28 -374 5 -600 12 -680 21
-66 8 -147 12 -180 10 -82 -6 -251 21 -324 52 -73 30 -103 31 -158 4z"/>
<path d="M13870 6106 c-129 -28 -266 -122 -453 -310 -207 -209 -264 -301 -395
-627 -93 -234 -177 -584 -201 -840 -17 -182 14 -523 61 -679 44 -145 209 -421
313 -525 111 -110 297 -197 515 -241 192 -38 399 28 569 183 96 87 174 186
245 311 148 260 217 520 266 1009 47 476 12 742 -143 1072 -59 126 -87 172
-157 259 -47 59 -104 119 -126 135 -80 56 -172 42 -222 -33 -20 -29 -23 -45
-20 -92 4 -47 10 -65 36 -95 126 -147 160 -198 214 -315 31 -68 71 -177 89
-243 32 -119 33 -123 33 -345 0 -232 -14 -401 -55 -645 -55 -334 -159 -568
-330 -749 -90 -95 -148 -130 -246 -147 -56 -10 -73 -8 -165 15 -205 53 -296
123 -408 312 -128 216 -148 293 -157 604 -5 182 -3 219 16 330 54 312 143 594
261 830 64 127 117 196 258 331 132 127 214 181 300 198 64 12 106 44 128 97
19 45 18 70 -6 119 -35 72 -118 102 -220 81z"/>
</g>
</svg>
